# xmcd
#
# Track frame offsets: 
#        150
#        18816
#        31726
#        50018
#        66437
#        85220
#        102689
#        117205
#        129268
#        146265
#        161823
#        178890
#        200383
#        215309
#
# Disc length: 3057 seconds
#
# Revision: 0
# Processed by: cddbd v1.5.2PL0 Copyright (c) Steve Scherf et al.
# Submitted via: ExactAudioCopy v0.99pb4
#
DISCID=c30bef0e
DTITLE=Черняков Виктор - За людей!
DYEAR=2007
DGENRE=
TTITLE0=Загуляю
TTITLE1=Когда-то
TTITLE2=Другая любимая
TTITLE3=Только вместе
TTITLE4=Женщина
TTITLE5=Гитара
TTITLE6=Покаяние (Мать)
TTITLE7=Для тебя
TTITLE8=С Днем Рождения, котреш
TTITLE9=Чарівна харків`янко
TTITLE10=Сирень
TTITLE11=Сиреневая печаль
TTITLE12=Дикий мед (дуэт с Катей Огонек)
TTITLE13=За людей
EXTD=
EXTT0=
EXTT1=
EXTT2=
EXTT3=
EXTT4=
EXTT5=
EXTT6=
EXTT7=
EXTT8=
EXTT9=
EXTT10=
EXTT11=
EXTT12=
EXTT13=
PLAYORDER=
